<?xml version="1.0" encoding="utf-8"?>
<!-- Generator: Adobe Illustrator 28.0.0, SVG Export Plug-In . SVG Version: 6.00 Build 0)  -->
<svg version="1.1" id="Layer_1" xmlns="http://www.w3.org/2000/svg" xmlns:xlink="http://www.w3.org/1999/xlink" x="0px" y="0px"
	 viewBox="0 0 375 257.33" style="enable-background:new 0 0 375 257.33;" xml:space="preserve">
<style type="text/css">
	.st0{fill:#FFFFFF;}
</style>
<g>
	<g>
		<g>
			<path class="st0" d="M132.63,46.71v86.91c0,28.03-21.56,44.29-49.76,44.29c-27.37,0-49.76-16.92-49.76-44.29V69.27h25.05v64.19
				c1.49,13.1,12.44,20.07,24.71,20.07c12.44,0,24.71-6.47,24.71-19.9V46.71c0-0.66,0.66-1.49,1.82-1.49h21.56
				C131.8,45.22,132.63,46.05,132.63,46.71z"/>
		</g>
		<g>
			<path class="st0" d="M249.22,46.71v129.71c0,0.66-0.66,1.49-1.82,1.49H225.5c-0.33,0-1.33-0.17-1.49-0.5L162.98,90v56.06H137.6
				V46.71c0-0.66,0.83-1.49,1.66-1.49h22.06c0.33,0,1.33,0.16,1.49,0.5l61.2,87.41V46.71c0-0.66,0.83-1.49,1.99-1.49h21.39
				C248.56,45.22,249.22,46.05,249.22,46.71z"/>
		</g>
		<g>
			<path class="st0" d="M337.29,139.26c0,24.88-19.9,38.64-41.13,38.64c0,0,0,0-0.17,0v-23.88c0.17,0,0.17,0,0.17,0
				c8.79,0,16.59-5.97,16.59-14.76c0-9.79-9.12-15.76-16.59-16.09c-1.16,0-10.12,0-19.74-4.48c-13.77-6.3-21.56-18.08-21.56-33.5
				c0-24.88,20.07-39.97,41.3-39.97c22.72,0,40.31,15.26,40.64,37.82c0.17,0.5-0.66,1.33-1.82,1.33h-20.73
				c-0.99,0-1.82-0.83-1.82-1.33c-0.33-9.45-7.63-13.93-16.25-13.93c-9.12,0-16.59,5.47-16.59,16.09c0,9.62,8.13,14.6,16.59,14.6
				c0.83,0,10.12,0,19.57,4.48C329.66,110.73,337.29,123.67,337.29,139.26z"/>
		</g>
	</g>
</g>
</svg>
