<?xml version="1.0" encoding="utf-8"?>
<svg viewBox="0 0 500 500" xmlns="http://www.w3.org/2000/svg">
  <defs>
    <linearGradient id="paint0_linear_16_344" x1="-12.4348" y1="91.2145" x2="228.124" y2="92.098" gradientUnits="userSpaceOnUse" gradientTransform="matrix(2.450969, 0, 0, 2.450977, 0.002553, -0.000686)">
      <stop style="stop-color: rgb(230, 41, 41);"/>
      <stop offset="1" style="stop-color: rgb(40, 8, 8);"/>
    </linearGradient>
  </defs>
  <path d="M 459.899 171.328 C 473.264 166.321 488.299 173.073 491.902 186.882 C 505.485 238.936 501.965 294.242 481.461 344.475 C 457.689 402.72 412.831 449.86 355.839 476.492 C 298.844 503.124 233.905 507.291 173.977 488.159 C 114.046 469.029 63.534 428.009 32.512 373.281 C 1.49 318.553 -7.76 254.142 6.61 192.897 C 20.98 131.649 57.911 78.073 110.036 42.853 C 162.161 7.632 225.648 -6.64 287.832 2.88 C 341.464 11.088 390.723 36.478 428.409 74.87 C 438.404 85.054 436.478 101.421 425.316 110.316 C 414.154 119.208 398.003 117.223 387.733 107.311 C 358.363 78.958 320.777 60.206 280.011 53.966 C 230.682 46.414 180.32 57.738 138.97 85.676 C 97.619 113.615 68.323 156.115 56.926 204.701 C 45.526 253.284 52.862 304.382 77.472 347.796 C 102.08 391.21 142.151 423.749 189.692 438.926 C 237.231 454.102 288.748 450.796 333.959 429.669 C 379.169 408.544 414.753 371.149 433.613 324.946 C 449.198 286.762 452.412 244.882 443.174 205.117 C 439.944 191.215 446.537 176.338 459.899 171.328 Z" fill="url(#paint0_linear_16_344)"/>
  <path d="M 185.433 220.098 C 174.138 220.098 164.609 227.068 164.609 237.657 C 164.609 242.686 167.344 246.657 171.491 249.127 C 166.815 251.509 161.962 256.539 161.962 263.598 C 161.962 275.862 173.168 283.098 185.433 283.098 C 197.697 283.098 208.903 275.862 208.903 263.598 C 208.903 256.539 204.05 251.509 199.374 249.127 C 203.521 246.657 206.256 242.686 206.256 237.657 C 206.256 227.068 196.727 220.098 185.433 220.098 Z M 193.021 262.715 C 193.021 266.862 189.933 269.862 185.433 269.862 C 180.933 269.862 177.844 266.862 177.844 262.715 C 177.844 258.745 180.933 255.657 185.433 255.657 C 189.933 255.657 193.021 258.745 193.021 262.715 Z M 185.433 232.98 C 188.962 232.98 191.697 235.362 191.697 238.804 C 191.697 242.245 189.05 244.627 185.433 244.627 C 181.815 244.627 179.168 242.245 179.168 238.804 C 179.168 235.362 181.903 232.98 185.433 232.98 Z M 268.444 251.598 C 268.444 234.921 258.915 220.098 241.619 220.098 C 224.236 220.098 214.707 234.921 214.707 251.598 C 214.707 268.274 224.236 283.098 241.619 283.098 C 258.915 283.098 268.444 268.274 268.444 251.598 Z M 252.033 251.598 C 252.033 259.804 248.856 267.833 241.619 267.833 C 234.295 267.833 231.119 259.804 231.119 251.598 C 231.119 243.392 234.295 235.362 241.619 235.362 C 248.856 235.362 252.033 243.392 252.033 251.598 Z M 304.856 235.362 C 304.856 226.98 298.062 220.451 289.327 220.451 C 280.591 220.451 273.797 226.98 273.797 235.362 C 273.797 243.745 280.591 250.274 289.327 250.274 C 298.062 250.274 304.856 243.745 304.856 235.362 Z M 294.444 235.362 C 294.444 238.451 292.238 240.568 289.327 240.568 C 286.415 240.568 284.209 238.451 284.209 235.362 C 284.209 232.274 286.415 230.157 289.327 230.157 C 292.238 230.157 294.444 232.274 294.444 235.362 Z M 337.944 221.245 L 324.444 221.245 L 279.444 281.862 L 292.944 281.862 L 337.944 221.245 Z M 312.532 267.745 C 312.532 276.127 319.326 282.656 328.062 282.656 C 336.797 282.656 343.591 276.127 343.591 267.745 C 343.591 259.362 336.797 252.833 328.062 252.833 C 319.326 252.833 312.532 259.362 312.532 267.745 Z M 322.944 267.745 C 322.944 264.657 325.15 262.539 328.062 262.539 C 330.974 262.539 333.179 264.657 333.179 267.745 C 333.179 270.833 330.974 272.951 328.062 272.951 C 325.15 272.951 322.944 270.833 322.944 267.745 Z" fill="white"/>
</svg>