<?xml version="1.0" encoding="utf-8"?>
<svg viewBox="0 0 500 500" xmlns="http://www.w3.org/2000/svg">
  <defs>
    <linearGradient id="paint0_linear_16_349" x1="-12.4348" y1="91.2145" x2="228.124" y2="92.098" gradientUnits="userSpaceOnUse" gradientTransform="matrix(2.450981, 0, 0, 2.450977, 0.000155, -0.000499)">
      <stop style="stop-color: rgb(220, 55, 55);"/>
      <stop offset="1" style="stop-color: rgb(64, 14, 14);"/>
    </linearGradient>
  </defs>
  <path d="M 459.899 171.328 C 473.264 166.321 488.299 173.073 491.902 186.882 C 505.485 238.936 501.965 294.242 481.46 344.475 C 457.688 402.72 412.831 449.86 355.838 476.492 C 298.843 503.124 233.906 507.291 173.978 488.159 C 114.046 469.029 63.534 428.009 32.512 373.281 C 1.49 318.553 -7.76 254.142 6.61 192.897 C 20.98 131.649 57.909 78.073 110.036 42.853 C 162.161 7.632 225.649 -6.64 287.831 2.88 C 341.463 11.088 390.723 36.478 428.409 74.87 C 438.404 85.054 436.478 101.421 425.316 110.316 C 414.154 119.208 398.002 117.223 387.732 107.311 C 358.362 78.958 320.777 60.206 280.009 53.966 C 230.683 46.414 180.321 57.738 138.97 85.676 C 97.62 113.615 68.323 156.115 56.926 204.701 C 45.527 253.284 52.862 304.382 77.473 347.796 C 102.08 391.21 142.152 423.749 189.693 438.926 C 237.232 454.102 288.747 450.796 333.958 429.669 C 379.169 408.544 414.752 371.149 433.612 324.946 C 449.198 286.762 452.411 244.882 443.174 205.117 C 439.943 191.215 446.536 176.338 459.899 171.328 Z" fill="url(#paint0_linear_16_349)"/>
  <path d="M 161.96 243.039 C 161.96 254.421 169.902 263.509 181.46 263.509 C 182.96 263.509 184.019 263.333 184.637 262.98 L 171.313 281.862 L 190.019 281.862 L 203.607 260.245 C 207.049 254.686 209.255 248.333 209.255 242.598 C 209.255 229.715 199.284 220.098 185.607 220.098 C 172.196 220.098 161.96 229.804 161.96 243.039 Z M 177.49 242.421 C 177.49 237.921 181.107 234.48 185.696 234.48 C 190.284 234.48 193.813 238.009 193.813 242.509 C 193.813 247.009 190.284 250.451 185.696 250.451 C 181.107 250.451 177.49 246.921 177.49 242.421 Z M 268.786 251.598 C 268.786 234.921 259.257 220.098 241.965 220.098 C 224.583 220.098 215.054 234.921 215.054 251.598 C 215.054 268.274 224.583 283.098 241.965 283.098 C 259.257 283.098 268.786 268.274 268.786 251.598 Z M 252.375 251.598 C 252.375 259.804 249.198 267.833 241.965 267.833 C 234.642 267.833 231.465 259.804 231.465 251.598 C 231.465 243.392 234.642 235.362 241.965 235.362 C 249.198 235.362 252.375 243.392 252.375 251.598 Z M 305.198 235.362 C 305.198 226.98 298.404 220.451 289.669 220.451 C 280.933 220.451 274.139 226.98 274.139 235.362 C 274.139 243.745 280.933 250.274 289.669 250.274 C 298.404 250.274 305.198 243.745 305.198 235.362 Z M 294.786 235.362 C 294.786 238.451 292.581 240.568 289.669 240.568 C 286.757 240.568 284.551 238.451 284.551 235.362 C 284.551 232.274 286.757 230.157 289.669 230.157 C 292.581 230.157 294.786 232.274 294.786 235.362 Z M 338.286 221.245 L 324.786 221.245 L 279.786 281.862 L 293.286 281.862 L 338.286 221.245 Z M 312.875 267.745 C 312.875 276.127 319.669 282.656 328.404 282.656 C 337.139 282.656 343.933 276.127 343.933 267.745 C 343.933 259.362 337.139 252.833 328.404 252.833 C 319.669 252.833 312.875 259.362 312.875 267.745 Z M 323.286 267.745 C 323.286 264.657 325.492 262.539 328.404 262.539 C 331.316 262.539 333.522 264.657 333.522 267.745 C 333.522 270.833 331.316 272.951 328.404 272.951 C 325.492 272.951 323.286 270.833 323.286 267.745 Z" fill="white"/>
</svg>