<?xml version="1.0" encoding="utf-8"?>
<svg viewBox="0 0 500 500" xmlns="http://www.w3.org/2000/svg">
  <defs>
    <linearGradient id="paint0_linear_16_339" x1="-12.4348" y1="91.2145" x2="228.124" y2="92.098" gradientUnits="userSpaceOnUse" gradientTransform="matrix(2.401601, -0.13437, 0.136578, 2.447169, -16.008926, 36.881304)">
      <stop style="stop-color: rgb(235, 48, 48);"/>
      <stop offset="1" style="stop-color: rgb(43, 1, 1);"/>
    </linearGradient>
  </defs>
  <path d="M 459.899 171.328 C 473.264 166.321 488.299 173.076 491.902 186.884 C 505.485 238.938 501.965 294.242 481.461 344.475 C 457.689 402.72 412.831 449.86 355.839 476.492 C 298.844 503.124 233.905 507.291 173.977 488.159 C 114.046 469.029 63.534 428.009 32.512 373.281 C 1.49 318.553 -7.76 254.142 6.61 192.897 C 20.98 131.652 57.911 78.073 110.036 42.853 C 162.161 7.635 225.648 -6.64 287.832 2.88 C 341.464 11.09 390.723 36.478 428.409 74.87 C 438.404 85.054 436.478 101.424 425.316 110.316 C 414.154 119.21 398.003 117.223 387.733 107.311 C 358.363 78.96 320.777 60.206 280.011 53.965 C 230.682 46.414 180.32 57.737 138.97 85.676 C 97.619 113.615 68.323 156.117 56.926 204.701 C 45.526 253.284 52.862 304.382 77.472 347.796 C 102.08 391.21 142.151 423.749 189.692 438.926 C 237.231 454.102 288.748 450.796 333.959 429.668 C 379.169 408.543 414.753 371.149 433.613 324.946 C 449.198 286.762 452.412 244.882 443.174 205.117 C 439.944 191.218 446.537 176.338 459.899 171.328 Z" fill="url(#paint0_linear_16_339)" style="stroke: rgba(255, 255, 255, 0);"/>
  <path d="M 161.962 243.039 C 161.962 254.421 169.903 263.509 181.462 263.509 C 182.962 263.509 184.021 263.333 184.638 262.98 L 171.315 281.862 L 190.021 281.862 L 203.609 260.245 C 207.05 254.686 209.256 248.333 209.256 242.598 C 209.256 229.715 199.285 220.098 185.609 220.098 C 172.197 220.098 161.962 229.803 161.962 243.039 Z M 177.491 242.421 C 177.491 237.921 181.109 234.48 185.697 234.48 C 190.285 234.48 193.815 238.009 193.815 242.509 C 193.815 247.009 190.285 250.45 185.697 250.45 C 181.109 250.45 177.491 246.921 177.491 242.421 Z M 231.366 257.156 C 232.69 255.039 235.248 253.362 238.513 253.362 C 243.013 253.362 246.278 256.539 246.278 260.862 C 246.278 265.186 243.013 268.627 238.513 268.627 C 233.837 268.627 231.278 265.539 231.013 262.803 L 215.484 262.803 C 215.749 275.068 224.749 283.098 238.778 283.098 C 251.925 283.098 261.984 273.303 261.984 260.068 C 261.984 249.127 254.131 240.039 242.572 240.039 C 238.778 240.039 235.425 241.009 232.513 242.862 L 233.66 235.098 L 257.748 235.098 L 257.748 221.333 L 221.484 221.333 L 216.984 254.156 L 231.366 257.156 Z M 297.444 235.362 C 297.444 226.98 290.65 220.451 281.915 220.451 C 273.18 220.451 266.386 226.98 266.386 235.362 C 266.386 243.745 273.18 250.274 281.915 250.274 C 290.65 250.274 297.444 243.745 297.444 235.362 Z M 287.033 235.362 C 287.033 238.451 284.827 240.568 281.915 240.568 C 279.003 240.568 276.797 238.451 276.797 235.362 C 276.797 232.274 279.003 230.156 281.915 230.156 C 284.827 230.156 287.033 232.274 287.033 235.362 Z M 330.532 221.245 L 317.032 221.245 L 272.033 281.862 L 285.533 281.862 L 330.532 221.245 Z M 305.121 267.745 C 305.121 276.127 311.915 282.656 320.65 282.656 C 329.385 282.656 336.179 276.127 336.179 267.745 C 336.179 259.362 329.385 252.833 320.65 252.833 C 311.915 252.833 305.121 259.362 305.121 267.745 Z M 315.532 267.745 C 315.532 264.656 317.738 262.539 320.65 262.539 C 323.562 262.539 325.768 264.656 325.768 267.745 C 325.768 270.833 323.562 272.95 320.65 272.95 C 317.738 272.95 315.532 270.833 315.532 267.745 Z" fill="white"/>
</svg>